<?xml version="1.0" encoding="UTF-8" standalone="no"?>
<svg
   xmlns:dc="http://purl.org/dc/elements/1.1/"
   xmlns:cc="http://creativecommons.org/ns#"
   xmlns:rdf="http://www.w3.org/1999/02/22-rdf-syntax-ns#"
   xmlns:svg="http://www.w3.org/2000/svg"
   xmlns="http://www.w3.org/2000/svg"
   xmlns:sodipodi="http://sodipodi.sourceforge.net/DTD/sodipodi-0.dtd"
   xmlns:inkscape="http://www.inkscape.org/namespaces/inkscape"
   viewBox="0 0 1240.1214 170.69333"
   aria-labelledby="title"
   aria-describedby="desc"
   role="img"
   version="1.1"
   id="svg3775"
   sodipodi:docname="slipFoot.svg"
   width="1240.1215"
   height="170.69333"
   inkscape:version="0.92.4 (5da689c313, 2019-01-14)"
   inkscape:export-filename="/home/karthikkaryamapudi/slipempty.png"
   inkscape:export-xdpi="96"
   inkscape:export-ydpi="96">
  <metadata
     id="metadata3781">
    <rdf:RDF>
      <cc:Work
         rdf:about="">
        <dc:format>image/svg+xml</dc:format>
        <dc:type
           rdf:resource="http://purl.org/dc/dcmitype/StillImage" />
        <dc:title>Receipt</dc:title>
      </cc:Work>
    </rdf:RDF>
  </metadata>
  <defs
     id="defs3779" />
  <sodipodi:namedview
     pagecolor="#ffffff"
     bordercolor="#666666"
     borderopacity="1"
     objecttolerance="10"
     gridtolerance="10"
     guidetolerance="10"
     inkscape:pageopacity="0"
     inkscape:pageshadow="2"
     inkscape:window-width="1920"
     inkscape:window-height="1040"
     id="namedview3777"
     showgrid="false"
     showborder="true"
     inkscape:zoom="0.7071068"
     inkscape:cx="700.64447"
     inkscape:cy="-56.821054"
     inkscape:window-x="240"
     inkscape:window-y="155"
     inkscape:window-maximized="1"
     inkscape:current-layer="svg3775"
     fit-margin-top="10"
     fit-margin-left="30"
     fit-margin-right="30"
     fit-margin-bottom="10" />
  <title
     id="title3767">Receipt</title>
  <desc
     id="desc3769">A line styled icon from Orion Icon Library.</desc>
  <path
     style="fill:#e6e6e6;stroke:#000000;stroke-width:1px;stroke-linecap:butt;stroke-linejoin:miter;stroke-opacity:1"
     d="M -5.6568541,-18.811283 1248.7506,-7.4975753 V 183.42125 H -14.142136 Z"
     id="path1569"
     inkscape:connector-curvature="0" />
  <path
     d="m 1145.3209,52.970679 v 64.771081 l 6.9184,-4.61229 7.0168,4.62618 6.9162,-4.62618 6.9427,4.61229 6.9173,-4.61229 6.9404,4.61229 6.9207,-4.61229 6.9381,4.61229 V 52.970679 m -13.8588,64.784971 v -0.0139 z m -13.8577,0 v -0.0139 z m -34.7681,-64.784971 h 69.4274"
     stroke-miterlimit="10"
     data-name="layer1"
     id="path3773"
     style="fill:#c83737;stroke:#808080;stroke-width:4.62848949;stroke-linecap:round;stroke-linejoin:round;stroke-miterlimit:10"
     inkscape:connector-curvature="0" />
  <text
     xml:space="preserve"
     style="font-style:normal;font-weight:normal;font-size:42.71992493px;line-height:1.25;font-family:sans-serif;letter-spacing:0px;word-spacing:0px;fill:#ffffff;fill-opacity:1;stroke:#808080;stroke-width:0.57856119;stroke-miterlimit:10;stroke-dasharray:none;stroke-opacity:1"
     x="1159.4009"
     y="92.098259"
     id="text4594"><tspan
       sodipodi:role="line"
       id="tspan4592"
       x="1159.4009"
       y="92.098259"
       style="font-style:italic;font-variant:normal;font-weight:900;font-stretch:normal;font-family:Roboto;-inkscape-font-specification:'Roboto Heavy Italic';fill:#ffffff;fill-opacity:1;stroke:#808080;stroke-width:0.57856119;stroke-miterlimit:10;stroke-dasharray:none">S</tspan></text>
  <g
     aria-label="Have Feedback?
Take a Slip!"
     style="font-style:normal;font-weight:normal;font-size:33.42797852px;line-height:1.25;font-family:sans-serif;letter-spacing:0px;word-spacing:0px;fill:#000000;fill-opacity:1;stroke:none;stroke-width:0.82749581"
     id="text1378">
    <path
       d="m 842.67109,73.105316 h 2.90823 V 50.073439 h -2.90823 v 9.727542 h -8.69128 v -9.727542 h -2.90823 v 23.031877 h 2.90823 V 62.174367 h 8.69128 z"
       style="font-style:normal;font-variant:normal;font-weight:normal;font-stretch:normal;font-size:33.42797852px;font-family:'Fira Code';-inkscape-font-specification:'Fira Code';stroke-width:0.82749581"
       id="path1419"
       inkscape:connector-curvature="0" />
    <path
       d="M 864.31936,69.261099 V 60.80382 c 0,-3.47651 -2.20624,-5.682756 -6.58531,-5.682756 -1.73826,0 -3.61022,0.33428 -5.78304,1.103123 l 0.76884,2.139391 c 1.80511,-0.635132 3.40966,-0.902556 4.57964,-0.902556 2.60738,0 4.17849,0.935984 4.17849,3.509938 v 1.437403 h -2.60738 c -5.31505,0 -8.22328,2.039107 -8.22328,5.649328 0,3.275942 2.13939,5.415333 5.68275,5.415333 2.27311,0 4.24536,-0.8357 5.51562,-2.47367 0.46799,1.604542 1.70483,2.30653 3.20909,2.507098 l 0.70198,-2.005679 c -1.00283,-0.300852 -1.4374,-0.835699 -1.4374,-2.239674 z m -7.2873,2.105962 c -2.30653,0 -3.37622,-1.136551 -3.37622,-3.342798 0,-2.273102 1.40397,-3.677077 5.28162,-3.677077 h 2.54052 v 4.512777 c -1.03626,1.571115 -2.70766,2.507098 -4.44592,2.507098 z"
       style="font-style:normal;font-variant:normal;font-weight:normal;font-stretch:normal;font-size:33.42797852px;font-family:'Fira Code';-inkscape-font-specification:'Fira Code';stroke-width:0.82749581"
       id="path1421"
       inkscape:connector-curvature="0" />
    <path
       d="m 886.43563,55.488771 h -2.94167 l -5.01419,15.076019 -5.08106,-15.076019 h -3.00851 l 6.38474,17.616545 h 3.24251 z"
       style="font-style:normal;font-variant:normal;font-weight:normal;font-stretch:normal;font-size:33.42797852px;font-family:'Fira Code';-inkscape-font-specification:'Fira Code';stroke-width:0.82749581"
       id="path1423"
       inkscape:connector-curvature="0" />
    <path
       d="m 894.01072,65.283169 h 11.8335 c 0.0334,-0.367708 0.0669,-0.902555 0.0669,-1.504259 0,-5.348476 -2.7411,-8.657846 -7.18702,-8.657846 -4.67991,0 -7.655,3.877645 -7.655,9.192694 0,5.482188 2.90823,9.159266 8.05614,9.159266 2.17282,0 4.37906,-0.768844 6.01703,-2.039107 l -1.30369,-1.871967 c -1.57111,1.036268 -2.90823,1.571115 -4.71334,1.571115 -2.70767,0 -4.98077,-1.771682 -5.11448,-5.849896 z m 4.74677,-7.855575 c 2.67424,0 4.34564,1.938823 4.41249,5.716185 h -9.15926 c 0.23399,-3.877646 2.13939,-5.716185 4.74677,-5.716185 z"
       style="font-style:normal;font-variant:normal;font-weight:normal;font-stretch:normal;font-size:33.42797852px;font-family:'Fira Code';-inkscape-font-specification:'Fira Code';stroke-width:0.82749581"
       id="path1425"
       inkscape:connector-curvature="0" />
    <path
       d="m 936.037,52.480253 h 10.32925 l 0.33428,-2.406814 H 933.12877 V 73.105316 H 936.037 V 62.876355 h 9.02556 V 60.536396 H 936.037 Z"
       style="font-style:normal;font-variant:normal;font-weight:normal;font-stretch:normal;font-size:33.42797852px;font-family:'Fira Code';-inkscape-font-specification:'Fira Code';stroke-width:0.82749581"
       id="path1427"
       inkscape:connector-curvature="0" />
    <path
       d="m 954.14191,65.283169 h 11.8335 c 0.0334,-0.367708 0.0669,-0.902555 0.0669,-1.504259 0,-5.348476 -2.7411,-8.657846 -7.18702,-8.657846 -4.67992,0 -7.65501,3.877645 -7.65501,9.192694 0,5.482188 2.90824,9.159266 8.05615,9.159266 2.17281,0 4.37906,-0.768844 6.01703,-2.039107 l -1.30369,-1.871967 c -1.57111,1.036268 -2.90823,1.571115 -4.71334,1.571115 -2.70767,0 -4.98077,-1.771682 -5.11448,-5.849896 z m 4.74677,-7.855575 c 2.67424,0 4.34564,1.938823 4.41249,5.716185 h -9.15926 c 0.23399,-3.877646 2.13939,-5.716185 4.74677,-5.716185 z"
       style="font-style:normal;font-variant:normal;font-weight:normal;font-stretch:normal;font-size:33.42797852px;font-family:'Fira Code';-inkscape-font-specification:'Fira Code';stroke-width:0.82749581"
       id="path1429"
       inkscape:connector-curvature="0" />
    <path
       d="m 974.18564,65.283169 h 11.8335 c 0.0334,-0.367708 0.0669,-0.902555 0.0669,-1.504259 0,-5.348476 -2.7411,-8.657846 -7.18702,-8.657846 -4.67991,0 -7.65501,3.877645 -7.65501,9.192694 0,5.482188 2.90824,9.159266 8.05615,9.159266 2.17282,0 4.37906,-0.768844 6.01703,-2.039107 L 984.0135,69.56195 c -1.57111,1.036268 -2.90823,1.571115 -4.71334,1.571115 -2.70767,0 -4.98077,-1.771682 -5.11448,-5.849896 z m 4.74677,-7.855575 c 2.67424,0 4.34564,1.938823 4.41249,5.716185 h -9.15926 c 0.23399,-3.877646 2.13939,-5.716185 4.74677,-5.716185 z"
       style="font-style:normal;font-variant:normal;font-weight:normal;font-stretch:normal;font-size:33.42797852px;font-family:'Fira Code';-inkscape-font-specification:'Fira Code';stroke-width:0.82749581"
       id="path1431"
       inkscape:connector-curvature="0" />
    <path
       d="m 1002.5529,48.06776 v 9.159266 c -1.2034,-1.370547 -2.70763,-2.105962 -4.74674,-2.105962 -4.31221,0 -6.88616,3.911073 -6.88616,9.192694 0,5.482188 2.10596,9.159266 6.71902,9.159266 1.9054,0 3.67708,-0.8357 4.98078,-2.674238 l 0.2674,2.30653 h 2.4737 V 48.40204 Z m -4.01132,9.326406 c 1.63792,0 3.04192,0.8357 4.01132,2.273103 v 8.75813 c -0.9694,1.470831 -2.3399,2.80795 -4.3456,2.80795 -2.77452,0 -4.24536,-2.339958 -4.24536,-6.919591 0,-4.646489 1.6714,-6.919592 4.57964,-6.919592 z"
       style="font-style:normal;font-variant:normal;font-weight:normal;font-stretch:normal;font-size:33.42797852px;font-family:'Fira Code';-inkscape-font-specification:'Fira Code';stroke-width:0.82749581"
       id="path1433"
       inkscape:connector-curvature="0" />
    <path
       d="M 1014.8414,57.795302 V 48.06776 l -2.808,0.33428 v 24.703276 h 2.4737 l 0.2006,-1.838539 c 1.2034,1.537687 2.7745,2.206247 4.7802,2.206247 4.5462,0 6.9864,-3.844218 6.9864,-9.192694 0,-5.515617 -1.9054,-9.159266 -6.5853,-9.159266 -2.0391,0 -3.7439,0.969411 -5.0476,2.674238 z m 4.0113,13.404619 c -1.6379,0 -3.0753,-0.835699 -4.0113,-2.273102 v -8.724703 c 0.9694,-1.403975 2.4736,-2.80795 4.4125,-2.80795 2.7411,0 4.1785,2.306531 4.1785,6.886164 0,4.679917 -1.6714,6.919591 -4.5797,6.919591 z"
       style="font-style:normal;font-variant:normal;font-weight:normal;font-stretch:normal;font-size:33.42797852px;font-family:'Fira Code';-inkscape-font-specification:'Fira Code';stroke-width:0.82749581"
       id="path1435"
       inkscape:connector-curvature="0" />
    <path
       d="M 1044.7129,69.261099 V 60.80382 c 0,-3.47651 -2.2062,-5.682756 -6.5853,-5.682756 -1.7382,0 -3.6102,0.33428 -5.783,1.103123 l 0.7688,2.139391 c 1.8051,-0.635132 3.4097,-0.902556 4.5797,-0.902556 2.6073,0 4.1785,0.935984 4.1785,3.509938 v 1.437403 h -2.6074 c -5.3151,0 -8.2233,2.039107 -8.2233,5.649328 0,3.275942 2.1394,5.415333 5.6827,5.415333 2.2731,0 4.2454,-0.8357 5.5157,-2.47367 0.468,1.604542 1.7048,2.30653 3.209,2.507098 l 0.702,-2.005679 c -1.0028,-0.300852 -1.4374,-0.835699 -1.4374,-2.239674 z m -7.2873,2.105962 c -2.3065,0 -3.3762,-1.136551 -3.3762,-3.342798 0,-2.273102 1.404,-3.677077 5.2816,-3.677077 h 2.5406 v 4.512777 c -1.0363,1.571115 -2.7077,2.507098 -4.446,2.507098 z"
       style="font-style:normal;font-variant:normal;font-weight:normal;font-stretch:normal;font-size:33.42797852px;font-family:'Fira Code';-inkscape-font-specification:'Fira Code';stroke-width:0.82749581"
       id="path1437"
       inkscape:connector-curvature="0" />
    <path
       d="m 1060.1102,71.066209 c -3.042,0 -5.2482,-1.97225 -5.2482,-6.685595 0,-4.646489 2.1728,-6.886164 5.2147,-6.886164 1.5712,0 3.042,0.534848 4.5463,1.537687 l 1.3705,-1.838539 c -1.638,-1.370547 -3.6102,-2.072534 -5.8833,-2.072534 -5.2482,0 -8.2902,3.977929 -8.2902,9.25955 0,5.515616 3.0086,9.09241 8.2902,9.09241 2.0391,0 4.4125,-0.802272 5.9167,-2.105963 l -1.3371,-1.838539 c -1.3371,0.902556 -2.8079,1.537687 -4.5796,1.537687 z"
       style="font-style:normal;font-variant:normal;font-weight:normal;font-stretch:normal;font-size:33.42797852px;font-family:'Fira Code';-inkscape-font-specification:'Fira Code';stroke-width:0.82749581"
       id="path1439"
       inkscape:connector-curvature="0" />
    <path
       d="m 1075.1731,48.06776 -2.8079,0.33428 v 24.703276 h 2.8079 z m 11.7332,7.421011 h -3.6102 l -7.8221,7.989287 8.6578,9.627258 h 3.7105 l -8.825,-9.660686 z"
       style="font-style:normal;font-variant:normal;font-weight:normal;font-stretch:normal;font-size:33.42797852px;font-family:'Fira Code';-inkscape-font-specification:'Fira Code';stroke-width:0.82749581"
       id="path1441"
       inkscape:connector-curvature="0" />
    <path
       d="m 1098.8605,49.705731 c -2.6742,0 -5.0476,1.036268 -6.9864,3.30937 l 1.9722,1.504259 c 1.404,-1.704827 3.1757,-2.47367 4.7468,-2.47367 2.2397,0 3.9445,1.103123 3.9445,3.008518 0,3.777361 -5.9168,3.743933 -5.9168,9.159266 v 1.303691 h 2.808 v -1.136551 c 0,-4.913913 6.0504,-4.14507 6.0504,-9.493546 0,-2.64081 -2.5071,-5.181337 -6.6187,-5.181337 z m -0.7354,19.287944 c -1.2703,0 -2.2397,1.002839 -2.2397,2.239674 0,1.270264 0.9694,2.239675 2.2397,2.239675 1.3037,0 2.2397,-0.969411 2.2397,-2.239675 0,-1.236835 -0.936,-2.239674 -2.2397,-2.239674 z"
       style="font-style:normal;font-variant:normal;font-weight:normal;font-stretch:normal;font-size:33.42797852px;font-family:'Fira Code';-inkscape-font-specification:'Fira Code';stroke-width:0.82749581"
       id="path1443"
       inkscape:connector-curvature="0" />
    <path
       d="m 839.72943,95.014048 h 6.95302 l 0.30085,-2.507098 h -17.34912 v 2.507098 h 7.18701 v 20.524782 h 2.90824 z"
       style="font-style:normal;font-variant:normal;font-weight:normal;font-stretch:normal;font-size:33.42797852px;font-family:'Fira Code';-inkscape-font-specification:'Fira Code';stroke-width:0.82749581"
       id="path1445"
       inkscape:connector-curvature="0" />
    <path
       d="m 864.31936,111.69461 v -8.45728 c 0,-3.476509 -2.20624,-5.682756 -6.58531,-5.682756 -1.73826,0 -3.61022,0.33428 -5.78304,1.103124 l 0.76884,2.139392 c 1.80511,-0.63513 3.40966,-0.902557 4.57964,-0.902557 2.60738,0 4.17849,0.935987 4.17849,3.509937 v 1.4374 h -2.60738 c -5.31505,0 -8.22328,2.03911 -8.22328,5.64933 0,3.27594 2.13939,5.41533 5.68275,5.41533 2.27311,0 4.24536,-0.83569 5.51562,-2.47367 0.46799,1.60455 1.70483,2.30653 3.20909,2.5071 l 0.70198,-2.00568 c -1.00283,-0.30085 -1.4374,-0.8357 -1.4374,-2.23967 z m -7.2873,2.10596 c -2.30653,0 -3.37622,-1.13655 -3.37622,-3.3428 0,-2.2731 1.40397,-3.67707 5.28162,-3.67707 h 2.54052 v 4.51277 c -1.03626,1.57112 -2.70766,2.5071 -4.44592,2.5071 z"
       style="font-style:normal;font-variant:normal;font-weight:normal;font-stretch:normal;font-size:33.42797852px;font-family:'Fira Code';-inkscape-font-specification:'Fira Code';stroke-width:0.82749581"
       id="path1447"
       inkscape:connector-curvature="0" />
    <path
       d="m 874.73583,90.501271 -2.80795,0.33428 v 24.703279 h 2.80795 z m 11.73322,7.421011 h -3.61022 l -7.82214,7.989288 8.65784,9.62726 h 3.71051 l -8.82499,-9.66069 z"
       style="font-style:normal;font-variant:normal;font-weight:normal;font-stretch:normal;font-size:33.42797852px;font-family:'Fira Code';-inkscape-font-specification:'Fira Code';stroke-width:0.82749581"
       id="path1449"
       inkscape:connector-curvature="0" />
    <path
       d="m 894.01072,107.71668 h 11.8335 c 0.0334,-0.36771 0.0669,-0.90256 0.0669,-1.50426 0,-5.34848 -2.7411,-8.657846 -7.18702,-8.657846 -4.67991,0 -7.655,3.877646 -7.655,9.192696 0,5.48219 2.90823,9.15926 8.05614,9.15926 2.17282,0 4.37906,-0.76884 6.01703,-2.0391 l -1.30369,-1.87197 c -1.57111,1.03627 -2.90823,1.57112 -4.71334,1.57112 -2.70767,0 -4.98077,-1.77169 -5.11448,-5.8499 z m 4.74677,-7.855575 c 2.67424,0 4.34564,1.938825 4.41249,5.716185 h -9.15926 c 0.23399,-3.87765 2.13939,-5.716185 4.74677,-5.716185 z"
       style="font-style:normal;font-variant:normal;font-weight:normal;font-stretch:normal;font-size:33.42797852px;font-family:'Fira Code';-inkscape-font-specification:'Fira Code';stroke-width:0.82749581"
       id="path1451"
       inkscape:connector-curvature="0" />
    <path
       d="m 944.49428,111.69461 v -8.45728 c 0,-3.476509 -2.20624,-5.682756 -6.58531,-5.682756 -1.73825,0 -3.61022,0.33428 -5.78304,1.103124 l 0.76884,2.139392 c 1.80511,-0.63513 3.40966,-0.902557 4.57964,-0.902557 2.60738,0 4.17849,0.935987 4.17849,3.509937 v 1.4374 h -2.60738 c -5.31505,0 -8.22328,2.03911 -8.22328,5.64933 0,3.27594 2.13939,5.41533 5.68276,5.41533 2.2731,0 4.24535,-0.83569 5.51561,-2.47367 0.46799,1.60455 1.70483,2.30653 3.20909,2.5071 l 0.70199,-2.00568 c -1.00284,-0.30085 -1.43741,-0.8357 -1.43741,-2.23967 z m -7.2873,2.10596 c -2.30653,0 -3.37622,-1.13655 -3.37622,-3.3428 0,-2.2731 1.40397,-3.67707 5.28162,-3.67707 h 2.54052 v 4.51277 c -1.03626,1.57112 -2.70766,2.5071 -4.44592,2.5071 z"
       style="font-style:normal;font-variant:normal;font-weight:normal;font-stretch:normal;font-size:33.42797852px;font-family:'Fira Code';-inkscape-font-specification:'Fira Code';stroke-width:0.82749581"
       id="path1453"
       inkscape:connector-curvature="0" />
    <path
       d="m 986.55399,109.15408 c 0,-4.37906 -3.14223,-5.88332 -6.75245,-6.91959 -4.37907,-1.27026 -5.78304,-2.273101 -5.78304,-4.245352 0,-2.30653 2.07253,-3.409654 4.61306,-3.409654 1.93882,0 3.87764,0.635132 5.51561,2.072535 l 1.73826,-1.871967 c -1.93882,-1.671399 -4.21193,-2.64081 -7.35416,-2.64081 -4.41249,0 -7.45443,2.47367 -7.45443,5.95018 0,3.643648 2.84137,5.315048 7.42101,6.652168 3.9445,1.13655 5.01419,2.23967 5.01419,4.47935 0,2.90823 -2.54052,4.27878 -5.34847,4.27878 -2.80795,0 -4.7802,-0.96941 -6.38475,-2.47367 l -1.73825,1.97225 c 1.93882,1.87197 4.71334,2.90823 8.08957,2.90823 5.34848,0 8.42385,-2.77452 8.42385,-6.75245 z"
       style="font-style:normal;font-variant:normal;font-weight:normal;font-stretch:normal;font-size:33.42797852px;font-family:'Fira Code';-inkscape-font-specification:'Fira Code';stroke-width:0.82749581"
       id="path1455"
       inkscape:connector-curvature="0" />
    <path
       d="m 998.87586,90.835551 h -8.22328 v 2.239674 h 5.41533 v 17.984255 c 0,3.04194 2.10596,4.84705 5.21479,4.84705 1.8051,0 3.2425,-0.40113 4.1785,-0.90255 l -0.7354,-2.03911 c -0.9695,0.36771 -1.9054,0.60171 -2.9417,0.60171 -1.7048,0 -2.90824,-0.63514 -2.90824,-2.37339 z"
       style="font-style:normal;font-variant:normal;font-weight:normal;font-stretch:normal;font-size:33.42797852px;font-family:'Fira Code';-inkscape-font-specification:'Fira Code';stroke-width:0.82749581"
       id="path1457"
       inkscape:connector-curvature="0" />
    <path
       d="m 1018.719,89.699 c -1.2034,0 -2.0057,0.835699 -2.0057,1.97225 0,1.136552 0.8023,1.972251 2.0057,1.972251 1.2369,0 2.0726,-0.835699 2.0726,-1.972251 0,-1.136551 -0.8357,-1.97225 -2.0726,-1.97225 z m 2.2397,8.223282 h -8.0561 v 2.239678 h 5.2481 v 13.13719 h -5.4153 v 2.23968 h 13.1706 v -2.23968 h -4.9473 z"
       style="font-style:normal;font-variant:normal;font-weight:normal;font-stretch:normal;font-size:33.42797852px;font-family:'Fira Code';-inkscape-font-specification:'Fira Code';stroke-width:0.82749581"
       id="path1459"
       inkscape:connector-curvature="0" />
    <path
       d="m 1039.9662,97.554574 c -2.106,0 -3.978,1.036268 -5.2482,2.841376 l -0.234,-2.473668 h -2.4068 v 24.703278 l 2.8079,-0.33428 v -8.39042 c 1.2034,1.33712 2.7411,2.00567 4.6799,2.00567 4.5797,0 6.7859,-3.84421 6.7859,-9.19269 0,-5.51562 -1.7048,-9.159266 -6.3847,-9.159266 z m -0.6686,2.273103 c 2.7745,0 4.0114,2.306533 4.0114,6.886163 0,4.67992 -1.4709,6.85274 -4.3791,6.85274 -1.6714,0 -3.1088,-0.8357 -4.0448,-2.20625 v -8.7247 c 0.9694,-1.40398 2.4737,-2.807953 4.4125,-2.807953 z"
       style="font-style:normal;font-variant:normal;font-weight:normal;font-stretch:normal;font-size:33.42797852px;font-family:'Fira Code';-inkscape-font-specification:'Fira Code';stroke-width:0.82749581"
       id="path1461"
       inkscape:connector-curvature="0" />
    <path
       d="m 1060.376,92.50695 h -3.1422 l 0.3343,15.44373 h 2.5071 z m -1.5377,18.92024 c -1.2702,0 -2.2396,1.00283 -2.2396,2.23967 0,1.27026 0.9694,2.23967 2.2396,2.23967 1.3037,0 2.2397,-0.96941 2.2397,-2.23967 0,-1.23684 -0.936,-2.23967 -2.2397,-2.23967 z"
       style="font-style:normal;font-variant:normal;font-weight:normal;font-stretch:normal;font-size:33.42797852px;font-family:'Fira Code';-inkscape-font-specification:'Fira Code';stroke-width:0.82749581"
       id="path1463"
       inkscape:connector-curvature="0" />
  </g>
  <g
     aria-label="© 2021 Example
Terms of Service
Careers
About"
     style="font-style:normal;font-weight:normal;font-size:15.428298px;line-height:1.25;font-family:sans-serif;text-align:start;letter-spacing:0px;word-spacing:0px;text-anchor:start;fill:#000000;fill-opacity:1;stroke:none;stroke-width:0.38570747"
     id="text1384">
    <path
       d="m 39.393262,9.9999994 c -5.783041,0 -9.092411,4.6464886 -9.092411,10.4295296 0,5.716184 3.342798,10.362673 9.092411,10.362673 5.749612,0 9.025554,-4.646489 9.025554,-10.362673 0,-5.783041 -3.275942,-10.4295296 -9.025554,-10.4295296 z m 0,1.6713986 c 4.813628,0 7.187015,3.911074 7.187015,8.758131 0,4.813629 -2.373387,8.657846 -7.187015,8.657846 -4.847057,0 -7.220444,-3.844217 -7.220444,-8.657846 0,-4.847057 2.373387,-8.758131 7.220444,-8.758131 z m 0.100283,2.406815 c -2.874806,0 -5.415332,2.172818 -5.415332,6.317888 0,4.078213 2.273102,6.317888 5.44876,6.317888 1.871967,0 3.14223,-0.735416 4.078214,-1.571115 l -1.103123,-1.604543 c -0.802272,0.735415 -1.671399,1.169979 -2.874807,1.169979 -1.871966,0 -3.14223,-1.370547 -3.14223,-4.312209 0,-3.175658 1.370547,-4.445921 3.14223,-4.445921 0.869128,0 1.738255,0.334279 2.607383,1.002839 l 1.203407,-1.571115 C 42.23464,14.479348 41.2318,14.078213 39.493545,14.078213 Z"
       style="font-style:normal;font-variant:normal;font-weight:normal;font-stretch:normal;font-size:33.42797852px;font-family:'Fira Code';-inkscape-font-specification:'Fira Code';text-align:start;text-anchor:start;stroke-width:0.38570747"
       id="path1466"
       inkscape:connector-curvature="0" />
    <path
       d="m 78.411026,11.571114 c -3.108802,0 -5.214765,1.103124 -7.019876,3.30937 l 1.938823,1.504259 c 1.470831,-1.704827 2.707666,-2.440242 4.947341,-2.440242 2.573954,0 4.145069,1.571115 4.145069,4.145069 0,3.743934 -1.871967,6.28446 -10.563241,14.608027 v 2.273102 h 13.705471 l 0.33428,-2.406814 H 75.068228 c 7.588151,-6.919592 10.295817,-10.329246 10.295817,-14.574599 0,-3.643649 -2.607382,-6.418172 -6.953019,-6.418172 z"
       style="font-style:normal;font-variant:normal;font-weight:normal;font-stretch:normal;font-size:33.42797852px;font-family:'Fira Code';-inkscape-font-specification:'Fira Code';text-align:start;text-anchor:start;stroke-width:0.38570747"
       id="path1468"
       inkscape:connector-curvature="0" />
    <path
       d="m 99.491021,11.571114 c -4.947341,0 -7.521295,4.245354 -7.521295,11.866933 0,7.655007 2.573954,11.90036 7.521295,11.90036 4.947339,0 7.521299,-4.245353 7.521299,-11.90036 0,-7.621579 -2.57396,-11.866933 -7.521299,-11.866933 z m 0,2.273103 c 1.303689,0 2.339959,0.467992 3.041949,1.470831 l -7.019878,14.140035 c -0.401136,-1.470831 -0.601704,-3.443082 -0.601704,-6.017036 0,-6.78588 1.738255,-9.59383 4.579633,-9.59383 z m 4.579629,9.59383 c 0,6.819307 -1.70482,9.627258 -4.579629,9.627258 -1.303691,0 -2.273103,-0.434564 -3.008518,-1.437404 l 6.986447,-14.20689 c 0.40114,1.470831 0.6017,3.476509 0.6017,6.017036 z"
       style="font-style:normal;font-variant:normal;font-weight:normal;font-stretch:normal;font-size:33.42797852px;font-family:'Fira Code';-inkscape-font-specification:'Fira Code';text-align:start;text-anchor:start;stroke-width:0.38570747"
       id="path1470"
       inkscape:connector-curvature="0" />
    <path
       d="m 118.49849,11.571114 c -3.10881,0 -5.21477,1.103124 -7.01988,3.30937 l 1.93882,1.504259 c 1.47083,-1.704827 2.70767,-2.440242 4.94734,-2.440242 2.57396,0 4.14507,1.571115 4.14507,4.145069 0,3.743934 -1.87196,6.28446 -10.56324,14.608027 v 2.273102 h 13.70547 l 0.33428,-2.406814 h -10.83066 c 7.58815,-6.919592 10.29581,-10.329246 10.29581,-14.574599 0,-3.643649 -2.60738,-6.418172 -6.95301,-6.418172 z"
       style="font-style:normal;font-variant:normal;font-weight:normal;font-stretch:normal;font-size:33.42797852px;font-family:'Fira Code';-inkscape-font-specification:'Fira Code';text-align:start;text-anchor:start;stroke-width:0.38570747"
       id="path1472"
       inkscape:connector-curvature="0" />
    <path
       d="m 146.83236,32.697597 h -4.78021 V 11.938822 h -2.47367 l -6.85273,4.278781 1.23683,1.972251 5.2482,-3.175658 v 17.683401 h -5.64933 v 2.273102 h 13.27091 z"
       style="font-style:normal;font-variant:normal;font-weight:normal;font-stretch:normal;font-size:33.42797852px;font-family:'Fira Code';-inkscape-font-specification:'Fira Code';text-align:start;text-anchor:start;stroke-width:0.38570747"
       id="path1474"
       inkscape:connector-curvature="0" />
    <path
       d="m 176.72428,14.345637 h 9.86125 l 0.33428,-2.406815 h -13.07034 v 23.031877 h 13.37119 v -2.339958 h -10.49638 v -8.156427 h 8.55756 v -2.373386 h -8.55756 z"
       style="font-style:normal;font-variant:normal;font-weight:normal;font-stretch:normal;font-size:33.42797852px;font-family:'Fira Code';-inkscape-font-specification:'Fira Code';text-align:start;text-anchor:start;stroke-width:0.38570747"
       id="path1476"
       inkscape:connector-curvature="0" />
    <path
       d="m 194.76233,34.970699 4.84706,-7.554723 4.84705,7.554723 h 3.40966 l -6.48503,-9.42669 5.71619,-8.189854 h -3.24252 l -4.11164,6.551883 -4.07821,-6.551883 h -3.3428 l 5.71618,8.323566 -6.48502,9.292978 z"
       style="font-style:normal;font-variant:normal;font-weight:normal;font-stretch:normal;font-size:33.42797852px;font-family:'Fira Code';-inkscape-font-specification:'Fira Code';text-align:start;text-anchor:start;stroke-width:0.38570747"
       id="path1478"
       inkscape:connector-curvature="0" />
    <path
       d="m 225.70358,31.126482 v -8.457279 c 0,-3.47651 -2.20624,-5.682756 -6.58531,-5.682756 -1.73825,0 -3.61022,0.33428 -5.78304,1.103123 l 0.76885,2.139391 c 1.80511,-0.635132 3.40965,-0.902556 4.57963,-0.902556 2.60738,0 4.1785,0.935984 4.1785,3.509938 v 1.437403 h -2.60739 c -5.31505,0 -8.22328,2.039107 -8.22328,5.649329 0,3.275941 2.13939,5.415332 5.68276,5.415332 2.2731,0 4.24535,-0.835699 5.51561,-2.47367 0.46799,1.604543 1.70483,2.30653 3.20909,2.507098 l 0.70199,-2.005679 c -1.00284,-0.300851 -1.43741,-0.835699 -1.43741,-2.239674 z m -7.2873,2.105962 c -2.30653,0 -3.37622,-1.136551 -3.37622,-3.342797 0,-2.273103 1.40397,-3.677078 5.28162,-3.677078 h 2.54053 v 4.512777 c -1.03627,1.571115 -2.70767,2.507098 -4.44593,2.507098 z"
       style="font-style:normal;font-variant:normal;font-weight:normal;font-stretch:normal;font-size:33.42797852px;font-family:'Fira Code';-inkscape-font-specification:'Fira Code';text-align:start;text-anchor:start;stroke-width:0.38570747"
       id="path1480"
       inkscape:connector-curvature="0" />
    <path
       d="m 244.71105,16.986447 c -1.77168,0 -2.90824,0.935983 -3.87765,2.339958 -0.53485,-1.80511 -1.83854,-2.339958 -3.17566,-2.339958 -1.77168,0 -2.8748,1.069695 -3.81079,2.440242 l -0.20056,-2.072534 h -2.17282 v 17.616544 h 2.57395 V 21.298656 c 0.96941,-1.504259 1.97225,-2.105963 3.07538,-2.105963 1.27026,0 1.37054,0.902556 1.37054,3.14223 v 12.635776 h 2.60739 V 21.298656 c 0.96941,-1.504259 2.00568,-2.105963 3.07537,-2.105963 1.27026,0 1.37055,0.902556 1.37055,3.14223 v 12.635776 h 2.57395 V 21.866932 c 0,-4.044786 -1.70483,-4.880485 -3.40965,-4.880485 z"
       style="font-style:normal;font-variant:normal;font-weight:normal;font-stretch:normal;font-size:33.42797852px;font-family:'Fira Code';-inkscape-font-specification:'Fira Code';text-align:start;text-anchor:start;stroke-width:0.38570747"
       id="path1482"
       inkscape:connector-curvature="0" />
    <path
       d="m 261.04427,16.986447 c -2.10596,0 -3.97793,1.036267 -5.24819,2.841378 l -0.23399,-2.47367 h -2.40682 v 24.703276 l 2.80795,-0.33428 v -8.390423 c 1.20341,1.33712 2.7411,2.005679 4.67992,2.005679 4.57963,0 6.78588,-3.844217 6.78588,-9.192694 0,-5.515616 -1.70483,-9.159266 -6.38475,-9.159266 z m -0.66856,2.273102 c 2.77453,0 4.01136,2.306531 4.01136,6.886164 0,4.679917 -1.47083,6.852736 -4.37906,6.852736 -1.6714,0 -3.10881,-0.8357 -4.04479,-2.206247 V 22.0675 c 0.96941,-1.403975 2.47367,-2.807951 4.41249,-2.807951 z"
       style="font-style:normal;font-variant:normal;font-weight:normal;font-stretch:normal;font-size:33.42797852px;font-family:'Fira Code';-inkscape-font-specification:'Fira Code';text-align:start;text-anchor:start;stroke-width:0.38570747"
       id="path1484"
       inkscape:connector-curvature="0" />
    <path
       d="m 280.15044,10.267423 h -8.22328 v 2.239675 h 5.41533 V 30.49135 c 0,3.041946 2.10597,4.847057 5.21477,4.847057 1.80511,0 3.24251,-0.401136 4.1785,-0.902555 l -0.73542,-2.039107 c -0.96941,0.367708 -1.9054,0.601704 -2.94166,0.601704 -1.70483,0 -2.90824,-0.635132 -2.90824,-2.373387 z"
       style="font-style:normal;font-variant:normal;font-weight:normal;font-stretch:normal;font-size:33.42797852px;font-family:'Fira Code';-inkscape-font-specification:'Fira Code';text-align:start;text-anchor:start;stroke-width:0.38570747"
       id="path1486"
       inkscape:connector-curvature="0" />
    <path
       d="m 295.5477,27.148552 h 11.83351 c 0.0334,-0.367707 0.0668,-0.902555 0.0668,-1.504259 0,-5.348476 -2.74109,-8.657846 -7.18701,-8.657846 -4.67992,0 -7.65501,3.877645 -7.65501,9.192694 0,5.482188 2.90823,9.159266 8.05614,9.159266 2.17282,0 4.37907,-0.768843 6.01704,-2.039107 l -1.30369,-1.871966 c -1.57112,1.036267 -2.90824,1.571115 -4.71335,1.571115 -2.70766,0 -4.98077,-1.771683 -5.11448,-5.849897 z m 4.74677,-7.855575 c 2.67424,0 4.34564,1.938823 4.4125,5.716185 h -9.15927 c 0.234,-3.877646 2.13939,-5.716185 4.74677,-5.716185 z"
       style="font-style:normal;font-variant:normal;font-weight:normal;font-stretch:normal;font-size:33.42797852px;font-family:'Fira Code';-inkscape-font-specification:'Fira Code';text-align:start;text-anchor:start;stroke-width:0.38570747"
       id="path1488"
       inkscape:connector-curvature="0" />
    <path
       d="m 40.763809,56.230894 h 6.953019 L 48.01768,53.723795 H 30.668559 v 2.507099 h 7.187015 v 20.524778 h 2.908235 z"
       style="font-style:normal;font-variant:normal;font-weight:normal;font-stretch:normal;font-size:33.42797852px;font-family:'Fira Code';-inkscape-font-specification:'Fira Code';text-align:start;text-anchor:start;stroke-width:0.38570747"
       id="path1490"
       inkscape:connector-curvature="0" />
    <path
       d="m 54.957642,68.933525 h 11.833505 c 0.03343,-0.367707 0.06686,-0.902555 0.06686,-1.504259 0,-5.348476 -2.741095,-8.657846 -7.187016,-8.657846 -4.679917,0 -7.655007,3.877646 -7.655007,9.192694 0,5.482189 2.908234,9.159266 8.056143,9.159266 2.172818,0 4.379065,-0.768843 6.017036,-2.039106 l -1.303691,-1.871967 c -1.571115,1.036267 -2.908234,1.571115 -4.713345,1.571115 -2.707666,0 -4.980769,-1.771683 -5.114481,-5.849897 z m 4.746773,-7.855574 c 2.674238,0 4.345637,1.938822 4.412493,5.716184 h -9.159266 c 0.233996,-3.877646 2.139391,-5.716184 4.746773,-5.716184 z"
       style="font-style:normal;font-variant:normal;font-weight:normal;font-stretch:normal;font-size:33.42797852px;font-family:'Fira Code';-inkscape-font-specification:'Fira Code';text-align:start;text-anchor:start;stroke-width:0.38570747"
       id="path1492"
       inkscape:connector-curvature="0" />
    <path
       d="m 72.928837,76.755672 h 9.159266 V 74.582854 H 78.51131 v -7.421011 c 1.136551,-3.877646 3.075374,-5.816469 5.78304,-5.816469 h 0.16714 v 3.777362 h 2.273102 l 0.401136,-5.983608 c -0.768843,-0.200568 -1.504259,-0.367708 -2.47367,-0.367708 -3.175658,0 -4.980769,1.671399 -6.317888,4.546205 l -0.534848,-4.178497 h -4.880485 v 2.172818 h 2.774522 v 13.270908 h -2.774522 z"
       style="font-style:normal;font-variant:normal;font-weight:normal;font-stretch:normal;font-size:33.42797852px;font-family:'Fira Code';-inkscape-font-specification:'Fira Code';text-align:start;text-anchor:start;stroke-width:0.38570747"
       id="path1494"
       inkscape:connector-curvature="0" />
    <path
       d="m 104.40493,58.77142 c -1.77168,0 -2.90823,0.935983 -3.87764,2.339959 -0.534849,-1.805111 -1.838541,-2.339959 -3.17566,-2.339959 -1.771683,0 -2.874806,1.069695 -3.810789,2.440242 l -0.200568,-2.072534 h -2.172819 v 17.616544 h 2.573955 V 63.083629 c 0.969411,-1.504259 1.97225,-2.105962 3.075374,-2.105962 1.270263,0 1.370547,0.902555 1.370547,3.14223 v 12.635775 h 2.60738 V 63.083629 c 0.96941,-1.504259 2.00568,-2.105962 3.07538,-2.105962 1.27026,0 1.37054,0.902555 1.37054,3.14223 v 12.635775 h 2.57396 V 63.651905 c 0,-4.044786 -1.70483,-4.880485 -3.40966,-4.880485 z"
       style="font-style:normal;font-variant:normal;font-weight:normal;font-stretch:normal;font-size:33.42797852px;font-family:'Fira Code';-inkscape-font-specification:'Fira Code';text-align:start;text-anchor:start;stroke-width:0.38570747"
       id="path1496"
       inkscape:connector-curvature="0" />
    <path
       d="m 118.86619,74.81685 c -2.07253,0 -3.9445,-0.768844 -5.31505,-1.905395 l -1.57111,1.838539 c 1.50426,1.303691 3.67708,2.373386 6.88616,2.373386 3.74394,0 7.38759,-1.470831 7.38759,-5.248192 0,-3.275942 -2.27311,-4.47935 -5.71619,-5.415333 -3.54336,-0.969411 -4.64649,-1.504259 -4.64649,-3.108802 0,-1.337119 1.00284,-2.30653 3.81079,-2.30653 2.27311,0 3.77736,0.701987 5.08106,1.604543 l 1.27026,-1.938823 c -1.50426,-1.069696 -3.5768,-1.938823 -6.41817,-1.938823 -3.97793,0 -6.6856,1.871967 -6.6856,4.813629 0,3.075374 2.37339,4.178497 6.01704,5.081053 3.74393,0.935983 4.24535,1.771683 4.24535,3.342798 0,1.704826 -1.63797,2.80795 -4.34564,2.80795 z"
       style="font-style:normal;font-variant:normal;font-weight:normal;font-stretch:normal;font-size:33.42797852px;font-family:'Fira Code';-inkscape-font-specification:'Fira Code';text-align:start;text-anchor:start;stroke-width:0.38570747"
       id="path1498"
       inkscape:connector-curvature="0" />
    <path
       d="m 159.65564,58.77142 c -4.94734,0 -7.62158,3.777362 -7.62158,9.192694 0,5.549045 2.64081,9.159266 7.58815,9.159266 4.91391,0 7.58815,-3.777361 7.58815,-9.192694 0,-5.549044 -2.60738,-9.159266 -7.55472,-9.159266 z m 0,2.306531 c 3.00851,0 4.51277,2.206246 4.51277,6.852735 0,4.713345 -1.50426,6.886164 -4.5462,6.886164 -3.04195,0 -4.54621,-2.172819 -4.54621,-6.852736 0,-4.679917 1.53769,-6.886163 4.57964,-6.886163 z"
       style="font-style:normal;font-variant:normal;font-weight:normal;font-stretch:normal;font-size:33.42797852px;font-family:'Fira Code';-inkscape-font-specification:'Fira Code';text-align:start;text-anchor:start;stroke-width:0.38570747"
       id="path1500"
       inkscape:connector-curvature="0" />
    <path
       d="m 183.37645,51.718117 c -3.64365,0 -6.41818,2.039106 -6.41818,5.28162 v 3.509938 h -4.17849 v 2.239674 h 4.17849 v 14.006323 h 2.84138 V 62.749349 h 5.64933 l 0.30085,-2.239674 h -5.95018 v -3.576794 c 0,-1.938823 1.23684,-2.908234 3.67708,-2.908234 1.33712,0 2.64081,0.233996 3.77736,0.735416 l 0.90256,-2.105963 c -1.37055,-0.568276 -2.87481,-0.935983 -4.7802,-0.935983 z"
       style="font-style:normal;font-variant:normal;font-weight:normal;font-stretch:normal;font-size:33.42797852px;font-family:'Fira Code';-inkscape-font-specification:'Fira Code';text-align:start;text-anchor:start;stroke-width:0.38570747"
       id="path1502"
       inkscape:connector-curvature="0" />
    <path
       d="m 227.67583,70.370929 c 0,-4.379066 -3.14223,-5.883325 -6.75245,-6.919592 -4.37906,-1.270263 -5.78304,-2.273103 -5.78304,-4.245353 0,-2.306531 2.07254,-3.409654 4.61306,-3.409654 1.93883,0 3.87765,0.635132 5.51562,2.072535 l 1.73825,-1.871967 c -1.93882,-1.671399 -4.21192,-2.640811 -7.35415,-2.640811 -4.41249,0 -7.45444,2.473671 -7.45444,5.950181 0,3.643649 2.84138,5.315048 7.42101,6.652167 3.9445,1.136552 5.0142,2.239675 5.0142,4.47935 0,2.908234 -2.54053,4.278781 -5.34848,4.278781 -2.80795,0 -4.7802,-0.969412 -6.38474,-2.473671 l -1.73826,1.972251 c 1.93883,1.871967 4.71335,2.908234 8.08957,2.908234 5.34848,0 8.42385,-2.774522 8.42385,-6.752451 z"
       style="font-style:normal;font-variant:normal;font-weight:normal;font-stretch:normal;font-size:33.42797852px;font-family:'Fira Code';-inkscape-font-specification:'Fira Code';text-align:start;text-anchor:start;stroke-width:0.38570747"
       id="path1504"
       inkscape:connector-curvature="0" />
    <path
       d="m 235.35121,68.933525 h 11.83351 c 0.0334,-0.367707 0.0668,-0.902555 0.0668,-1.504259 0,-5.348476 -2.74109,-8.657846 -7.18701,-8.657846 -4.67992,0 -7.65501,3.877646 -7.65501,9.192694 0,5.482189 2.90824,9.159266 8.05614,9.159266 2.17282,0 4.37907,-0.768843 6.01704,-2.039106 l -1.30369,-1.871967 c -1.57112,1.036267 -2.90823,1.571115 -4.71335,1.571115 -2.70766,0 -4.98076,-1.771683 -5.11448,-5.849897 z m 4.74678,-7.855574 c 2.67424,0 4.34563,1.938822 4.41249,5.716184 h -9.15927 c 0.234,-3.877646 2.13939,-5.716184 4.74678,-5.716184 z"
       style="font-style:normal;font-variant:normal;font-weight:normal;font-stretch:normal;font-size:33.42797852px;font-family:'Fira Code';-inkscape-font-specification:'Fira Code';text-align:start;text-anchor:start;stroke-width:0.38570747"
       id="path1506"
       inkscape:connector-curvature="0" />
    <path
       d="m 253.32241,76.755672 h 9.15927 v -2.172818 h -3.5768 v -7.421011 c 1.13655,-3.877646 3.07538,-5.816469 5.78304,-5.816469 h 0.16714 v 3.777362 h 2.27311 l 0.40113,-5.983608 c -0.76884,-0.200568 -1.50426,-0.367708 -2.47367,-0.367708 -3.17566,0 -4.98077,1.671399 -6.31789,4.546205 l -0.53484,-4.178497 h -4.88049 v 2.172818 h 2.77452 v 13.270908 h -2.77452 z"
       style="font-style:normal;font-variant:normal;font-weight:normal;font-stretch:normal;font-size:33.42797852px;font-family:'Fira Code';-inkscape-font-specification:'Fira Code';text-align:start;text-anchor:start;stroke-width:0.38570747"
       id="path1508"
       inkscape:connector-curvature="0" />
    <path
       d="m 287.9073,59.139128 h -2.94166 l -5.0142,15.076018 -5.08105,-15.076018 h -3.00852 l 6.38474,17.616544 h 3.24252 z"
       style="font-style:normal;font-variant:normal;font-weight:normal;font-stretch:normal;font-size:33.42797852px;font-family:'Fira Code';-inkscape-font-specification:'Fira Code';text-align:start;text-anchor:start;stroke-width:0.38570747"
       id="path1510"
       inkscape:connector-curvature="0" />
    <path
       d="m 299.92831,50.915845 c -1.2034,0 -2.00567,0.8357 -2.00567,1.972251 0,1.136551 0.80227,1.972251 2.00567,1.972251 1.23684,0 2.07254,-0.8357 2.07254,-1.972251 0,-1.136551 -0.8357,-1.972251 -2.07254,-1.972251 z m 2.23968,8.223283 h -8.05614 v 2.239674 h 5.24819 v 13.137196 h -5.41533 v 2.239674 h 13.17062 v -2.239674 h -4.94734 z"
       style="font-style:normal;font-variant:normal;font-weight:normal;font-stretch:normal;font-size:33.42797852px;font-family:'Fira Code';-inkscape-font-specification:'Fira Code';text-align:start;text-anchor:start;stroke-width:0.38570747"
       id="path1512"
       inkscape:connector-curvature="0" />
    <path
       d="m 321.27574,74.716566 c -3.04195,0 -5.24819,-1.972251 -5.24819,-6.685596 0,-4.646489 2.17281,-6.886164 5.21476,-6.886164 1.57111,0 3.04195,0.534848 4.5462,1.537687 l 1.37055,-1.838538 c -1.63797,-1.370547 -3.61022,-2.072535 -5.88332,-2.072535 -5.24819,0 -8.29014,3.977929 -8.29014,9.25955 0,5.515617 3.00852,9.09241 8.29014,9.09241 2.0391,0 4.41249,-0.802271 5.91675,-2.105962 l -1.33712,-1.838539 c -1.33712,0.902555 -2.80795,1.537687 -4.57963,1.537687 z"
       style="font-style:normal;font-variant:normal;font-weight:normal;font-stretch:normal;font-size:33.42797852px;font-family:'Fira Code';-inkscape-font-specification:'Fira Code';text-align:start;text-anchor:start;stroke-width:0.38570747"
       id="path1514"
       inkscape:connector-curvature="0" />
    <path
       d="m 335.56986,68.933525 h 11.8335 c 0.0334,-0.367707 0.0669,-0.902555 0.0669,-1.504259 0,-5.348476 -2.7411,-8.657846 -7.18702,-8.657846 -4.67991,0 -7.655,3.877646 -7.655,9.192694 0,5.482189 2.90823,9.159266 8.05614,9.159266 2.17282,0 4.37906,-0.768843 6.01703,-2.039106 l -1.30369,-1.871967 c -1.57111,1.036267 -2.90823,1.571115 -4.71334,1.571115 -2.70767,0 -4.98077,-1.771683 -5.11448,-5.849897 z m 4.74677,-7.855574 c 2.67424,0 4.34564,1.938822 4.41249,5.716184 h -9.15926 c 0.23399,-3.877646 2.13939,-5.716184 4.74677,-5.716184 z"
       style="font-style:normal;font-variant:normal;font-weight:normal;font-stretch:normal;font-size:33.42797852px;font-family:'Fira Code';-inkscape-font-specification:'Fira Code';text-align:start;text-anchor:start;stroke-width:0.38570747"
       id="path1516"
       inkscape:connector-curvature="0" />
    <path
       d="m 41.298656,95.141061 c -5.315048,0 -9.861253,4.111641 -9.861253,11.866929 0,7.75529 4.379065,11.90036 9.994965,11.90036 3.275942,0 5.482189,-1.13655 6.886164,-2.5071 l -1.504259,-1.87196 c -1.236835,0.96941 -2.774522,1.90539 -5.348477,1.90539 -3.944501,0 -6.986447,-2.57395 -6.986447,-9.42669 0,-7.019872 3.275942,-9.426687 7.019875,-9.426687 1.771683,0 3.376226,0.467992 4.847057,1.704827 l 1.637971,-1.905395 c -1.838539,-1.437403 -3.677078,-2.239674 -6.685596,-2.239674 z"
       style="font-style:normal;font-variant:normal;font-weight:normal;font-stretch:normal;font-size:33.42797852px;font-family:'Fira Code';-inkscape-font-specification:'Fira Code';text-align:start;text-anchor:start;stroke-width:0.38570747"
       id="path1518"
       inkscape:connector-curvature="0" />
    <path
       d="m 65.353743,114.69643 v -8.45728 c 0,-3.47651 -2.206246,-5.68276 -6.585311,-5.68276 -1.738255,0 -3.610222,0.33428 -5.783041,1.10313 l 0.768844,2.13939 c 1.805111,-0.63513 3.409654,-0.90256 4.579633,-0.90256 2.607382,0 4.178497,0.93599 4.178497,3.50994 v 1.4374 h -2.607382 c -5.315049,0 -8.223283,2.03911 -8.223283,5.64933 0,3.27594 2.139391,5.41533 5.682757,5.41533 2.273102,0 4.245353,-0.8357 5.515616,-2.47367 0.467992,1.60455 1.704827,2.30653 3.209086,2.5071 l 0.701988,-2.00568 c -1.00284,-0.30085 -1.437404,-0.8357 -1.437404,-2.23967 z m -7.287299,2.10596 c -2.30653,0 -3.376226,-1.13655 -3.376226,-3.3428 0,-2.2731 1.403975,-3.67707 5.281621,-3.67707 h 2.540526 v 4.51277 c -1.036267,1.57112 -2.707666,2.5071 -4.445921,2.5071 z"
       style="font-style:normal;font-variant:normal;font-weight:normal;font-stretch:normal;font-size:33.42797852px;font-family:'Fira Code';-inkscape-font-specification:'Fira Code';text-align:start;text-anchor:start;stroke-width:0.38570747"
       id="path1520"
       inkscape:connector-curvature="0" />
    <path
       d="m 72.928837,118.54065 h 9.159266 v -2.17282 H 78.51131 v -7.42101 c 1.136551,-3.87765 3.075374,-5.81647 5.78304,-5.81647 h 0.16714 v 3.77736 h 2.273102 l 0.401136,-5.98361 c -0.768843,-0.20057 -1.504259,-0.36771 -2.47367,-0.36771 -3.175658,0 -4.980769,1.6714 -6.317888,4.54621 l -0.534848,-4.1785 h -4.880485 v 2.17282 h 2.774522 v 13.27091 h -2.774522 z"
       style="font-style:normal;font-variant:normal;font-weight:normal;font-stretch:normal;font-size:33.42797852px;font-family:'Fira Code';-inkscape-font-specification:'Fira Code';text-align:start;text-anchor:start;stroke-width:0.38570747"
       id="path1522"
       inkscape:connector-curvature="0" />
    <path
       d="m 95.0451,110.7185 h 11.8335 c 0.0334,-0.36771 0.0669,-0.90256 0.0669,-1.50426 0,-5.34848 -2.74109,-8.65785 -7.187015,-8.65785 -4.679917,0 -7.655007,3.87765 -7.655007,9.1927 0,5.48219 2.908234,9.15926 8.056142,9.15926 2.17282,0 4.37907,-0.76884 6.01704,-2.0391 l -1.30369,-1.87197 c -1.57112,1.03627 -2.90824,1.57111 -4.71335,1.57111 -2.707666,0 -4.980768,-1.77168 -5.11448,-5.84989 z m 4.746773,-7.85558 c 2.674237,0 4.345637,1.93883 4.412497,5.71619 H 95.0451 c 0.233996,-3.87765 2.13939,-5.71619 4.746773,-5.71619 z"
       style="font-style:normal;font-variant:normal;font-weight:normal;font-stretch:normal;font-size:33.42797852px;font-family:'Fira Code';-inkscape-font-specification:'Fira Code';text-align:start;text-anchor:start;stroke-width:0.38570747"
       id="path1524"
       inkscape:connector-curvature="0" />
    <path
       d="m 115.08883,110.7185 h 11.83351 c 0.0334,-0.36771 0.0668,-0.90256 0.0668,-1.50426 0,-5.34848 -2.74109,-8.65785 -7.18701,-8.65785 -4.67992,0 -7.65501,3.87765 -7.65501,9.1927 0,5.48219 2.90823,9.15926 8.05614,9.15926 2.17282,0 4.37907,-0.76884 6.01704,-2.0391 l -1.30369,-1.87197 c -1.57112,1.03627 -2.90824,1.57111 -4.71335,1.57111 -2.70766,0 -4.98077,-1.77168 -5.11448,-5.84989 z m 4.74677,-7.85558 c 2.67424,0 4.34564,1.93883 4.4125,5.71619 h -9.15927 c 0.234,-3.87765 2.13939,-5.71619 4.74677,-5.71619 z"
       style="font-style:normal;font-variant:normal;font-weight:normal;font-stretch:normal;font-size:33.42797852px;font-family:'Fira Code';-inkscape-font-specification:'Fira Code';text-align:start;text-anchor:start;stroke-width:0.38570747"
       id="path1526"
       inkscape:connector-curvature="0" />
    <path
       d="m 133.06003,118.54065 h 9.15926 v -2.17282 h -3.57679 v -7.42101 c 1.13655,-3.87765 3.07537,-5.81647 5.78304,-5.81647 h 0.16714 v 3.77736 h 2.2731 l 0.40114,-5.98361 c -0.76884,-0.20057 -1.50426,-0.36771 -2.47367,-0.36771 -3.17566,0 -4.98077,1.6714 -6.31789,4.54621 l -0.53485,-4.1785 h -4.88048 v 2.17282 h 2.77452 v 13.27091 h -2.77452 z"
       style="font-style:normal;font-variant:normal;font-weight:normal;font-stretch:normal;font-size:33.42797852px;font-family:'Fira Code';-inkscape-font-specification:'Fira Code';text-align:start;text-anchor:start;stroke-width:0.38570747"
       id="path1528"
       inkscape:connector-curvature="0" />
    <path
       d="m 158.95365,116.60182 c -2.07254,0 -3.9445,-0.76884 -5.31505,-1.90539 l -1.57111,1.83854 c 1.50425,1.30369 3.67707,2.37338 6.88616,2.37338 3.74393,0 7.38758,-1.47083 7.38758,-5.24819 0,-3.27594 -2.2731,-4.47935 -5.71618,-5.41533 -3.54337,-0.96941 -4.64649,-1.50426 -4.64649,-3.1088 0,-1.33712 1.00284,-2.30653 3.81079,-2.30653 2.2731,0 3.77736,0.70198 5.08105,1.60454 l 1.27026,-1.93882 c -1.50425,-1.0697 -3.57679,-1.93883 -6.41817,-1.93883 -3.97793,0 -6.68559,1.87197 -6.68559,4.81363 0,3.07538 2.37338,4.1785 6.01703,5.08105 3.74394,0.93599 4.24536,1.77169 4.24536,3.3428 0,1.70483 -1.63797,2.80795 -4.34564,2.80795 z"
       style="font-style:normal;font-variant:normal;font-weight:normal;font-stretch:normal;font-size:33.42797852px;font-family:'Fira Code';-inkscape-font-specification:'Fira Code';text-align:start;text-anchor:start;stroke-width:0.38570747"
       id="path1530"
       inkscape:connector-curvature="0" />
    <path
       d="m 43.839183,154.44229 1.838538,5.88333 H 48.68624 L 41.198372,137.29374 H 37.521295 L 30,160.32562 h 2.874806 l 1.838539,-5.88333 z m -8.356995,-2.40681 3.81079,-12.26807 3.777361,12.26807 z"
       style="font-style:normal;font-variant:normal;font-weight:normal;font-stretch:normal;font-size:33.42797852px;font-family:'Fira Code';-inkscape-font-specification:'Fira Code';text-align:start;text-anchor:start;stroke-width:0.38570747"
       id="path1532"
       inkscape:connector-curvature="0" />
    <path
       d="m 55.525918,145.0156 v -9.72754 l -2.80795,0.33428 v 24.70328 h 2.47367 l 0.200568,-1.83854 c 1.203407,1.53769 2.774522,2.20625 4.780201,2.20625 4.546205,0 6.986447,-3.84422 6.986447,-9.1927 0,-5.51561 -1.905394,-9.15926 -6.585311,-9.15926 -2.039107,0 -3.743934,0.96941 -5.047625,2.67423 z m 4.011357,13.40462 c -1.637971,0 -3.075374,-0.8357 -4.011357,-2.2731 v -8.7247 c 0.969411,-1.40398 2.47367,-2.80795 4.412493,-2.80795 2.741094,0 4.178497,2.30653 4.178497,6.88616 0,4.67992 -1.671399,6.91959 -4.579633,6.91959 z"
       style="font-style:normal;font-variant:normal;font-weight:normal;font-stretch:normal;font-size:33.42797852px;font-family:'Fira Code';-inkscape-font-specification:'Fira Code';text-align:start;text-anchor:start;stroke-width:0.38570747"
       id="path1534"
       inkscape:connector-curvature="0" />
    <path
       d="m 79.480721,142.34137 c -4.947341,0 -7.621579,3.77736 -7.621579,9.19269 0,5.54904 2.64081,9.15927 7.588151,9.15927 4.913913,0 7.588151,-3.77737 7.588151,-9.1927 0,-5.54904 -2.607382,-9.15926 -7.554723,-9.15926 z m 0,2.30653 c 3.008518,0 4.512777,2.20624 4.512777,6.85273 0,4.71335 -1.504259,6.88617 -4.546205,6.88617 -3.041946,0 -4.546205,-2.17282 -4.546205,-6.85274 0,-4.67992 1.537687,-6.88616 4.579633,-6.88616 z"
       style="font-style:normal;font-variant:normal;font-weight:normal;font-stretch:normal;font-size:33.42797852px;font-family:'Fira Code';-inkscape-font-specification:'Fira Code';text-align:start;text-anchor:start;stroke-width:0.38570747"
       id="path1536"
       inkscape:connector-curvature="0" />
    <path
       d="m 95.613375,142.70907 h -2.80795 v 12.80292 c 0,3.27594 1.671399,5.18134 5.081053,5.18134 2.072535,0 4.245352,-0.96941 5.649332,-2.7411 l 0.23399,2.37339 h 2.40682 v -17.61655 h -2.80795 v 12.97006 c -0.96941,1.50426 -2.84138,2.80795 -4.780204,2.80795 -2.039107,0 -2.975091,-1.00284 -2.975091,-3.27594 z"
       style="font-style:normal;font-variant:normal;font-weight:normal;font-stretch:normal;font-size:33.42797852px;font-family:'Fira Code';-inkscape-font-specification:'Fira Code';text-align:start;text-anchor:start;stroke-width:0.38570747"
       id="path1538"
       inkscape:connector-curvature="0" />
    <path
       d="m 126.85548,159.42306 -1.10312,-1.90539 c -0.93599,0.50142 -2.07254,0.8357 -3.37623,0.8357 -2.40681,0 -3.37623,-1.03627 -3.37623,-2.97509 v -10.46296 h 5.74962 l 0.36771,-2.20625 h -6.11733 v -4.31221 l -2.80795,0.33428 v 3.97793 h -4.04478 v 2.20625 h 4.04478 v 10.49639 c 0,3.07537 2.1394,5.28162 5.91676,5.28162 1.6714,0 3.50993,-0.468 4.74677,-1.27027 z"
       style="font-style:normal;font-variant:normal;font-weight:normal;font-stretch:normal;font-size:33.42797852px;font-family:'Fira Code';-inkscape-font-specification:'Fira Code';text-align:start;text-anchor:start;stroke-width:0.38570747"
       id="path1540"
       inkscape:connector-curvature="0" />
  </g>
  <flowRoot
     xml:space="preserve"
     id="flowRoot1392"
     style="font-style:normal;font-weight:normal;font-size:40px;line-height:1.25;font-family:sans-serif;letter-spacing:0px;word-spacing:0px;fill:#000000;fill-opacity:1;stroke:none"
     transform="translate(-366.19651,-8.4852804)"><flowRegion
       id="flowRegion1394"><rect
         id="rect1396"
         width="418.60721"
         height="121.62236"
         x="12.727921"
         y="22.200909" /></flowRegion><flowPara
       id="flowPara1398"></flowPara></flowRoot>  <rect
     style="opacity:0;fill-opacity:1;stroke:#808080;stroke-width:0.5;stroke-miterlimit:10;stroke-dasharray:none;stroke-opacity:1;fill-rule:nonzero;fill:#333333"
     id="rect1549"
     width="1262.8927"
     height="190.91882"
     x="-14.142136"
     y="-7.4975753" />
</svg>
